<svg width="24" height="24" viewBox="0 0 24 24" fill="none" xmlns="http://www.w3.org/2000/svg">
<path d="M1.5 2.33643L4.875 9.09018V19.8002L1.5 22.5002V2.33643Z" fill="#1D91CC"/>
<path d="M11.625 3.375V4.875H5.28375L4.53375 3.375H11.625Z" fill="#1D91CC"/>
<path d="M11.625 5.625V7.125H6.40875L5.65875 5.625H11.625Z" fill="#1D91CC"/>
<path d="M18.3412 5.625L17.5912 7.125H12.375V5.625H18.3412Z" fill="#1D91CC"/>
<path d="M19.4662 3.375L18.7162 4.875H12.375V3.375H19.4662Z" fill="#1D91CC"/>
<path d="M1.92 1.5L5.4825 8.625H18.5175L22.08 1.5H1.92ZM18.1575 7.66875C18.0937 7.79625 17.9662 7.875 17.8237 7.875H6.17625C6.03375 7.875 5.90625 7.79625 5.8425 7.66875L3.5925 3.16875C3.5325 3.0525 3.54 2.91375 3.6075 2.80125C3.675 2.6925 3.795 2.625 3.92625 2.625H20.0737C20.205 2.625 20.325 2.6925 20.3925 2.80125C20.46 2.91375 20.4675 3.0525 20.4075 3.16875L18.1575 7.66875Z" fill="#1D91CC"/>
<path d="M22.5 2.33643V22.5002L19.125 19.8002V9.09018L22.5 2.33643Z" fill="#1D91CC"/>
<path d="M11.625 3.375V4.875H5.28375L4.53375 3.375H11.625Z" fill="#1D91CC"/>
<path d="M11.625 5.625V7.125H6.40875L5.65875 5.625H11.625Z" fill="#1D91CC"/>
<path d="M18.3412 5.625L17.5912 7.125H12.375V5.625H18.3412Z" fill="#1D91CC"/>
<path d="M19.4662 3.375L18.7162 4.875H12.375V3.375H19.4662Z" fill="#1D91CC"/>
<path d="M1.92 1.5L5.4825 8.625H18.5175L22.08 1.5H1.92ZM18.1575 7.66875C18.0937 7.79625 17.9662 7.875 17.8237 7.875H6.17625C6.03375 7.875 5.90625 7.79625 5.8425 7.66875L3.5925 3.16875C3.5325 3.0525 3.54 2.91375 3.6075 2.80125C3.675 2.6925 3.795 2.625 3.92625 2.625H20.0737C20.205 2.625 20.325 2.6925 20.3925 2.80125C20.46 2.91375 20.4675 3.0525 20.4075 3.16875L18.1575 7.66875Z" fill="#1D91CC"/>
<path d="M5.625 9.375H18.375V19.5H5.625V9.375Z" fill="#1D91CC"/>
</svg>
