<svg width="24" height="24" viewBox="0 0 24 24" fill="none" xmlns="http://www.w3.org/2000/svg">
<g clip-path="url(#clip0_304_807)">
<path d="M6.375 4.26562C5.98706 4.26562 5.67188 4.58081 5.67188 4.96875V7.78125C5.67188 8.16919 5.98706 8.48438 6.375 8.48438H19.0781C19.4661 8.48438 19.7812 8.16919 19.7812 7.78125V4.96875C19.7812 4.58081 19.4661 4.26562 19.0781 4.26562H6.375Z" fill="#1D91CC"/>
<path d="M2.15625 24C3.31941 24 4.26562 23.0538 4.26562 21.8906C4.26562 21.5027 4.58081 21.1875 4.96875 21.1875C6.13191 21.1875 7.07812 20.2413 7.07812 19.0781V17.625C7.07812 17.1957 7.46044 16.8795 7.75791 16.9219C9.13444 16.8458 9.89062 15.8717 9.89062 14.8125V13.4062C9.89062 13.0256 10.2024 12.6815 10.5704 12.7031C11.1239 12.699 11.6684 12.4978 12.0721 12.1009C12.4793 11.7006 12.7031 11.1651 12.7031 10.5938V9.89062H6.375C5.21184 9.89062 4.26562 8.94441 4.26562 7.78125V7.07812H3.5625C3.17386 7.07812 2.85938 6.76364 2.85938 6.375C2.85938 5.98636 3.17386 5.67188 3.5625 5.67188H4.26562V4.96875C4.26562 3.80559 5.21184 2.85938 6.375 2.85938H16.9219V2.10938C16.9219 0.946219 15.9757 0 14.8125 0H2.15625C0.993094 0 0 0.946219 0 2.10938V21.8906C0 23.0538 0.993094 24 2.15625 24Z" fill="#1D91CC"/>
<path d="M21.1875 5.74316V7.20777C22.0042 7.49901 22.5938 8.27216 22.5938 9.18763C22.5938 10.3508 21.6475 11.297 20.4844 11.297H14.8125C13.6493 11.297 12.7031 12.2432 12.7031 13.4064V14.2386C11.8858 14.5291 11.2969 15.3018 11.2969 16.2189V21.8908C11.2969 23.0557 12.2413 24.0001 13.4062 24.0001C14.5712 24.0001 15.5156 23.0557 15.5156 21.8908V16.2189C15.5156 15.3018 14.9267 14.5291 14.1094 14.2386V13.4064C14.1094 13.0184 14.4246 12.7033 14.8125 12.7033H20.4844C22.4228 12.7033 24 11.1261 24 9.18763C24 7.49001 22.7902 6.06984 21.1875 5.74316Z" fill="#1D91CC"/>
</g>
<defs>
<clipPath id="clip0_304_807">
<rect width="24" height="24" fill="white"/>
</clipPath>
</defs>
</svg>
