<svg width="24" height="24" viewBox="0 0 24 24" fill="none" xmlns="http://www.w3.org/2000/svg">
<g clip-path="url(#clip0_304_791)">
<rect width="24" height="24" fill="#E8F4FA"/>
<path d="M22.8 15.2002H17.2V16.0002H22.8C23.0272 16.0002 23.2 15.8094 23.2 15.6002C23.2 15.3798 23.0208 15.2002 22.8 15.2002Z" fill="#1D91CC"/>
<path d="M22.8 11.6001H17.2V12.4001H22.8C23.0272 12.4001 23.2 12.2093 23.2 12.0001C23.2 11.7797 23.0208 11.6001 22.8 11.6001Z" fill="#1D91CC"/>
<path d="M15.2 0.799805H8C7.3384 0.799805 6.8 1.3382 6.8 1.9998V6.2918C7.1728 6.1202 7.5784 6.0226 8 6.0078V5.9994C8 4.4554 9.2564 3.1994 10.8 3.1994H12.4C13.9436 3.1994 15.2 4.4554 15.2 5.9994V8.39941H15.1916C15.4428 8.6538 15.6 9.00741 15.6 9.39941C15.6 9.701 15.5052 9.9786 15.348 10.2074C15.7372 10.4534 16 10.8934 16 11.3994C16 11.9054 15.7372 12.345 15.348 12.5914C15.5052 12.8202 15.6 13.0982 15.6 13.3994C15.6 13.9054 15.3368 14.3458 14.9476 14.5914C15.1084 14.8214 15.2 15.101 15.2 15.3994V17.9994C15.2 19.5434 13.9436 20.7994 12.4 20.7994H10.8C9.2564 20.7994 8 19.5434 8 17.9994V16.7994H7.924C7.5772 16.7994 7.1912 16.7738 6.8 16.6426V21.9994C6.8 22.661 7.3384 23.1994 8 23.1994H15.2C15.8616 23.1994 16.4 22.661 16.4 21.9994V1.9998C16.4 1.3382 15.8616 0.799805 15.2 0.799805Z" fill="#1D91CC"/>
<path d="M22.8 18.7998H17.2V19.5998H22.8C23.0272 19.5998 23.2 19.409 23.2 19.1998C23.2 18.9794 23.0208 18.7998 22.8 18.7998Z" fill="#1D91CC"/>
<path d="M22.8 8H17.2V8.8H22.8C23.0272 8.8 23.2 8.6092 23.2 8.4C23.2 8.1796 23.0208 8 22.8 8Z" fill="#1D91CC"/>
<path d="M22.8 4.3999H17.2V5.1999H22.8C23.0272 5.1999 23.2 5.0091 23.2 4.7999C23.2 4.5795 23.0208 4.3999 22.8 4.3999Z" fill="#1D91CC"/>
<path d="M14.2488 8C14.3004 8 14.3496 8.01 14.4 8.016V6C14.4 4.8972 13.5028 4 12.4 4H10.8C9.6972 4 8.8 4.8972 8.8 6H9.6C9.6 5.3384 10.1384 4.8 10.8 4.8H12.4C13.0616 4.8 13.6 5.3384 13.6 6V8H14.2488Z" fill="#1D91CC"/>
<path d="M12.4 18.3998C12.6208 18.3998 12.8 18.2202 12.8 17.9998V16.7998H10.4V17.9998C10.4 18.2202 10.5792 18.3998 10.8 18.3998H12.4Z" fill="#1D91CC"/>
<path d="M13.848 15.9998C14.1524 15.9998 14.4 15.7306 14.4 15.3998C14.4 15.2354 14.3412 15.085 14.234 14.9758C14.1556 14.8918 14.0312 14.7998 13.848 14.7998H13.6C13.3788 14.7998 13.2 14.6206 13.2 14.3998C13.2 14.179 13.3788 13.9998 13.6 13.9998H14.2488C14.5528 13.9998 14.8 13.7306 14.8 13.3998C14.8 13.069 14.5528 12.7998 14.2488 12.7998H13.2C12.9788 12.7998 12.8 12.6206 12.8 12.3998C12.8 12.179 12.9788 11.9998 13.2 11.9998H14.6488C14.9528 11.9998 15.2 11.7306 15.2 11.3998C15.2 11.069 14.9528 10.7998 14.6488 10.7998H13.2C12.9788 10.7998 12.8 10.6206 12.8 10.3998C12.8 10.179 12.9788 9.9998 13.2 9.9998H14.2488C14.5528 9.9998 14.8 9.7306 14.8 9.3998C14.8 9.069 14.5528 8.7998 14.2488 8.7998H8.4C8.1788 8.7998 8 8.6206 8 8.3998C8 8.179 8.1788 7.9998 8.4 7.9998H9.6V6.7998H8.108C7.13 6.7998 6.2452 7.41661 5.8544 8.37141C5.6464 8.88181 5.4952 9.25341 5.1704 10.051C5.0872 10.2562 4.8528 10.3538 4.6492 10.2706C4.4444 10.1874 4.346 9.9538 4.4296 9.749L4.6532 9.1998H1.2C0.979203 9.1998 0.800003 9.37941 0.800003 9.5998V14.3998C0.800003 14.6202 0.979203 14.7998 1.2 14.7998H4.8C5.6084 14.7998 6.2232 15.3266 6.5184 15.5798C6.9308 15.9334 7.3784 15.9998 7.924 15.9998H13.848Z" fill="#1D91CC"/>
<path d="M10.8 5.6001C10.5792 5.6001 10.4 5.7797 10.4 6.0001V8.0001H12.8V6.0001C12.8 5.7797 12.6208 5.6001 12.4 5.6001H10.8Z" fill="#1D91CC"/>
<path d="M8.8 16.8001V18.0001C8.8 19.1029 9.6972 20.0001 10.8 20.0001H12.4C13.5028 20.0001 14.4 19.1029 14.4 18.0001V16.6753C14.2312 16.7541 14.0452 16.8001 13.848 16.8001H13.6V18.0001C13.6 18.6617 13.0616 19.2001 12.4 19.2001H10.8C10.1384 19.2001 9.6 18.6617 9.6 18.0001V16.8001H8.8Z" fill="#1D91CC"/>
</g>
<defs>
<clipPath id="clip0_304_791">
<rect width="24" height="24" fill="white"/>
</clipPath>
</defs>
</svg>
