<svg width="24" height="24" viewBox="0 0 24 24" fill="none" xmlns="http://www.w3.org/2000/svg">
<path d="M10.8849 18.336C10.8849 16.05 9.28925 12.4165 6.7409 10.3174C3.10626 7.72057 1.14147 9.5419 1.13213 12.5666C1.11085 18.0088 6.6685 23.7033 9.56181 21.8515C10.6678 21.1362 10.9398 19.6607 10.8849 18.336ZM8.93338 19.4701C8.77056 20.2795 8.43149 20.6912 7.08582 19.8859C4.91226 18.5865 3.01273 15.1702 3.02219 12.576C3.02219 11.418 3.23577 10.6756 4.28853 11.0498C6.72025 11.8836 9.49252 16.435 8.93338 19.4701Z" fill="#1D91CC"/>
<path d="M12.3024 6.09306C12.0307 6.14726 11.7992 6.32862 11.6834 6.38601C12.1465 6.44271 12.6426 6.61754 13.1482 6.91996C15.2178 8.15322 16.8953 11.1679 16.8858 13.6344C16.8858 14.2156 16.7913 14.7354 16.607 15.1748L16.8338 15.0378C16.8386 15.0331 16.8764 15.0142 16.8811 15.0094C17.4576 14.6362 17.7789 13.8612 17.7836 12.8217C17.7904 10.2863 15.9316 7.28752 13.9373 6.33404C13.2749 6.00264 12.6202 5.97372 12.3024 6.09306Z" fill="#1D91CC"/>
<path d="M11.2534 7.468C13.3528 8.30787 15.5311 11.6137 15.5203 14.4471C15.5203 14.9829 15.445 15.4941 15.2415 15.9828C15.6304 15.7548 15.4949 15.8323 15.525 15.8174C15.6809 15.7182 15.818 15.5811 15.9455 15.4016C16.2527 14.9716 16.4133 14.3573 16.4133 13.6343C16.4228 11.3143 14.8493 8.48392 12.9025 7.32625C12.2504 6.93406 11.6267 6.77815 11.1022 6.86792C11.0975 6.86792 11.0975 6.86792 11.0975 6.86792H11.0928C10.6724 6.93963 10.5079 7.10133 10.3179 7.19866C10.6155 7.23647 10.9274 7.32152 11.2487 7.46327C11.2487 7.46327 11.2487 7.46327 11.2534 7.468Z" fill="#1D91CC"/>
<path d="M17.9821 14.3526L18.3837 14.1116C18.6861 13.932 18.9224 13.6391 19.083 13.2658C19.2437 12.8925 19.3287 12.4294 19.3287 11.8955C19.3382 9.57544 17.7647 6.74507 15.818 5.58739C14.9154 5.04872 14.0791 4.95421 13.4695 5.32279L13.0537 5.5685C13.5605 5.66046 13.6946 5.70753 14.1263 5.89924C16.4051 6.99641 18.2561 10.2295 18.2561 12.8122C18.2561 13.3869 18.1812 13.8055 17.9821 14.3526Z" fill="#1D91CC"/>
<path d="M21.0393 12.0512C20.9791 11.0892 20.7557 9.96904 20.1273 8.50255C19.5331 7.16588 18.7402 5.98668 17.949 5.14296C17.1646 4.31492 16.1149 3.4378 15.0288 3.09223C14.2908 2.82862 13.4391 2.78295 12.7466 3.16785C11.896 3.63563 11.3763 4.67518 11.3007 6.06438C11.4318 5.98609 13.3457 4.84337 13.2238 4.91616C13.994 4.45781 15.0005 4.54759 16.0636 5.18077C18.1333 6.41403 19.8107 9.42869 19.8013 11.8952C19.8013 13.1332 19.3854 14.0641 18.6294 14.5177L17.1315 15.4107C17.1261 15.4148 16.7877 15.6152 16.7819 15.6186C17.9112 16.1621 18.9413 16.1857 19.7162 15.6943C20.1502 15.4049 20.456 15.0278 20.6565 14.5697C21.0227 13.8367 21.08 12.8654 21.0393 12.0512Z" fill="#1D91CC"/>
<path d="M17.8828 2.48765C16.5882 1.70799 15.3785 1.58043 14.4855 2.11908L13.9987 2.41203C14.2347 2.41203 14.8784 2.53612 15.0997 2.61524C16.0139 2.87638 17.4621 3.80886 18.5822 5.14792C19.3218 5.97464 20.1874 7.37226 20.6471 8.5217C21.072 9.53069 21.4259 10.7212 21.507 12.0183C21.5908 13.0228 21.3923 14.099 21.1574 14.6077C21.1241 14.6979 21.0233 14.906 21.0203 14.9148L21.4929 14.6313C21.937 14.3667 22.2772 13.9509 22.5088 13.4075C22.7403 12.8641 22.8632 12.1979 22.8679 11.4324C22.8774 8.14839 20.6471 4.13673 17.8828 2.48765Z" fill="#1D91CC"/>
<path d="M7.70481 8.63973C7.70008 8.635 7.69065 8.63027 7.68592 8.62554C5.23709 7.18509 4.1183 8.4939 3.84436 8.56884C4.73357 8.56884 6.327 9.28466 7.03858 9.95331C9.88884 12.329 11.3668 15.9508 11.3668 18.6665C11.3668 19.3611 11.2095 20.4821 10.8565 21.0716L11.329 20.7881C12.2079 20.2684 12.6946 19.1485 12.7088 17.627C12.7194 13.9101 9.94712 9.75405 7.70481 8.63973Z" fill="#1D91CC"/>
<path d="M13.3278 13.2045C12.6685 11.2008 11.3563 9.65879 10.1714 8.95657C9.64485 8.63386 8.9853 8.4015 8.38051 8.49822H8.36635C8.75079 8.80615 8.63541 8.63911 9.61853 9.55195C10.8487 10.7825 11.722 12.1955 12.3686 13.7668C12.9001 15.1192 13.1671 16.5481 13.1671 17.0933L13.1718 17.0886C13.9367 16.1329 13.7088 14.3873 13.3325 13.2281C13.3325 13.2234 13.3278 13.214 13.3278 13.2045Z" fill="#1D91CC"/>
<path d="M4.82722 14.8393C4.82216 15.6222 5.33616 16.6174 6.07467 17.079C6.67464 17.4519 7.19923 17.2046 7.19923 16.408C7.19923 15.5811 6.63693 14.5794 5.94708 14.1683C5.37591 13.8335 4.82722 14.0614 4.82722 14.8393Z" fill="#1D91CC"/>
<path d="M17.4987 18.3379C16.7928 18.7659 15.8888 17.9913 15.49 17.2565C15.3353 16.9659 14.9916 16.275 14.7739 15.8731C14.975 15.439 15.0477 14.9253 15.0477 14.4469C15.0587 11.7599 12.9806 8.66406 11.0644 7.89778H11.0597C9.69715 7.30108 9.09505 7.96975 8.94754 8.01591H8.96646C9.48753 8.11993 9.87506 8.21915 10.4124 8.54986C11.9684 9.46754 13.2174 11.3326 13.7861 13.0813C13.7861 13.086 13.7908 13.0955 13.7908 13.1049C13.9562 13.6105 14.0602 14.1019 14.1121 14.5697C14.174 15.3737 14.2008 16.0179 13.8806 16.7952C14.1894 16.6162 14.0943 16.6695 14.1263 16.6535C14.2256 16.5921 14.3153 16.5165 14.4051 16.4267C14.424 16.4078 14.4382 16.3794 14.4571 16.3605C14.4655 16.3509 14.4728 16.3394 14.4813 16.3297C14.6905 16.7302 14.9768 17.2994 15.0743 17.4808C15.6218 18.4892 16.7834 19.3231 17.7433 18.7421C17.8549 18.6745 17.8905 18.5294 17.8231 18.4177C17.7553 18.3058 17.6099 18.2712 17.4987 18.3379Z" fill="#1D91CC"/>
</svg>
